#!OML:ASF I:\Random Stuff\random\construction\7_22_03\Session 2\subj1.ASF
:FULLY-SPECIFIED
:DEGREES
2587
root 4.42998 17.7897 0.200276 14.1927 113.861 3.41793
lowerback 2.24569 3.97534 -0.24181
upperback 0.20426 5.41317 3.52202
thorax -1.40981 2.75102 3.55436
lowerneck -24.1879 -1.68056 3.93926
upperneck 44.4398 -4.48667 6.28506
head 23.6512 0.994236 2.0409
rclavicle 4.1546e-014 1.43125e-014
rhumerus -26.3578 4.93711 -41.093
rradius 86.1757
rwrist -39.0825
rhand 23.6453 9.13191
rfingers 7.12502
rthumb 47.9146 -13.1207
lclavicle 4.1546e-014 1.43125e-014
lhumerus 5.57169 17.7749 14.4478
lradius 90.3249
lwrist 78.4456
lhand -17.939 49.0121
lfingers 7.12502
lthumb 8.32922 798.828
rfemur -7.12486 2.33775 22.1723
rtibia 10.3392
rfoot -17.2178 -43.2946
rtoes 16.9526
lfemur -26.8659 -27.7734 -10.0365
ltibia 20.1016
lfoot -7.06668 8.03082
ltoes -32.5895
2588
root 4.44509 17.7893 0.205646 14.2234 113.282 3.58311
lowerback 2.19692 3.93805 -0.387708
upperback 0.0871284 5.35587 3.42752
thorax -1.50337 2.72255 3.5391
lowerneck -24.1555 -1.51032 4.28955
upperneck 44.6082 -4.28591 6.08392
head 23.7585 1.11107 1.9273
rclavicle -6.95746e-014 2.70347e-014
rhumerus -26.2328 4.78252 -40.9825
rradius 90.7879
rwrist -38.6486
rhand 28.5143 10.3755
rfingers 7.12502
rthumb 52.3663 -9.50999
lclavicle -6.95746e-014 2.70347e-014
lhumerus 5.29034 17.6871 15.0269
lradius 90.9505
lwrist 78.2007
lhand -17.1932 48.8001
lfingers 7.12502
lthumb 9.04889 798.586
rfemur -6.98496 2.45007 22.1879
rtibia 10.265
rfoot -16.8159 -42.9577
rtoes 16.5087
lfemur -26.5429 -27.6853 -10.0813
ltibia 20.1761
lfoot -7.19911 8.46481
ltoes -33.5432
2589
root 4.46075 17.7885 0.210958 14.21 112.734 3.71175
lowerback 2.13463 3.91447 -0.54369
upperback -0.00258275 5.31669 3.34901
thorax -1.56476 2.70336 3.54739
lowerneck -24.2078 -1.36091 4.42855
upperneck 44.7837 -4.1124 6.09362
head 23.9415 1.21004 1.97322
rclavicle -1.78906e-014 -3.4191e-014
rhumerus -25.9544 4.59256 -40.8228
rradius 95.0624
rwrist -38.4102
rhand 31.9952 12.0242
rfingers 7.12502
rthumb 55.4912 -5.75312
lclavicle -1.78906e-014 -3.4191e-014
lhumerus 4.9796 17.6865 15.7544
lradius 91.6482
lwrist 78.1186
lhand -16.4699 48.6325
lfingers 7.12502
lthumb 9.74681 798.387
rfemur -6.846 2.39784 22.1965
rtibia 10.2138
rfoot -16.3104 -42.5281
rtoes 15.7467
lfemur -26.1876 -27.3559 -10.2427
ltibia 20.2409
lfoot -7.32091 8.7582
ltoes -33.1483
2590
root 4.47565 17.7883 0.215006 14.2276 112.143 3.86192
lowerback 2.03501 3.91367 -0.692302
upperback -0.0527755 5.30716 3.27366
thorax -1.56622 2.69837 3.55804
lowerneck -24.2865 -1.16975 4.73045
upperneck 44.88 -3.9319 6.00897
head 24.0469 1.32122 1.925
rclavicle -5.66536e-014 -3.65764e-014
rhumerus -25.6104 4.24576 -40.7876
rradius 98.9849
rwrist -38.8366
rhand 33.4989 13.8893
rfingers 7.12502
rthumb 56.8221 -2.84397
lclavicle -5.66536e-014 -3.65764e-014
lhumerus 4.50979 17.8212 16.5425
lradius 92.5103
lwrist 78.4137
lhand -15.7461 48.5035
lfingers 7.12502
lthumb 10.4451 798.224
rfemur -6.74675 2.16773 22.1993
rtibia 10.1902
rfoot -15.5573 -41.9188
rtoes 14.5081
lfemur -25.814 -26.9515 -10.4218
ltibia 20.2829
lfoot -7.48867 8.97425
ltoes -32.3889
2591
root 4.48872 17.7889 0.218762 14.191 111.563 3.94193
lowerback 1.97592 3.89801 -0.822368
upperback -0.120484 5.27818 3.17132
thorax -1.60272 2.68352 3.52772
lowerneck -24.3592 -0.985182 4.95739
upperneck 44.9844 -3.74402 5.97521
head 24.1674 1.42833 1.92426
rclavicle 1.78906e-014 9.54166e-015
rhumerus -25.2461 3.79983 -40.9973
rradius 102.481
rwrist -40.0477
rhand 33.4257 15.803
rfingers 7.12502
rthumb 56.7576 -0.983141
lclavicle 1.78906e-014 9.54166e-015
lhumerus 3.94206 17.8816 17.3592
lradius 93.5396
lwrist 78.7065
lhand -15.0589 48.4211
lfingers 7.12502
lthumb 11.1079 798.107
rfemur -6.65171 2.03843 22.1662
rtibia 10.1577
rfoot -14.9039 -41.396
rtoes 13.3782
lfemur -25.4684 -26.7586 -10.5569
ltibia 20.3151
lfoot -7.63518 9.30918
ltoes -32.3311
2592
root 4.49915 17.7903 0.225332 14.0598 111.088 3.91471
lowerback 1.96404 3.85056 -0.966543
upperback -0.196068 5.20627 3.05274
thorax -1.67046 2.64747 3.48663
lowerneck -24.4885 -0.776567 5.20126
upperneck 45.0721 -3.56912 6.01246
head 24.3057 1.54254 1.95862
rclavicle 1.86858e-014 3.49861e-014
rhumerus -24.8689 3.35419 -41.306
rradius 105.481
rwrist -41.8253
rhand 32.64 17.423
rfingers 7.12502
rthumb 56.0635 0.0826231
lclavicle 1.86858e-014 3.49861e-014
lhumerus 3.41288 17.8658 18.3007
lradius 94.6922
lwrist 78.7276
lhand -14.4662 48.1532
lfingers 7.12502
lthumb 11.6796 797.808
rfemur -6.52633 2.01765 22.113
rtibia 10.0678
rfoot -14.5241 -41.0301
rtoes 12.714
lfemur -25.1707 -26.4996 -10.7296
ltibia 20.3623
lfoot -7.72492 9.49101
ltoes -32.5594
2593
root 4.50896 17.7913 0.233338 14.0597 110.677 4.02609
lowerback 1.9454 3.81194 -1.09329
upperback -0.259845 5.14745 2.95389
thorax -1.72347 2.61819 3.45667
lowerneck -24.6083 -0.556125 5.56217
upperneck 45.0613 -3.44653 6.03827
head 24.3414 1.65165 1.93745
rclavicle 7.45443e-014 -1.74931e-014
rhumerus -24.593 2.90362 -41.6875
rradius 108.086
rwrist -43.669
rhand 31.7797 18.8148
rfingers 7.12502
rthumb 55.2995 0.894951
lclavicle 7.45443e-014 -1.74931e-014
lhumerus 2.89608 17.8413 19.2856
lradius 95.987
lwrist 78.8306
lhand -13.9404 47.915
lfingers 7.12502
lthumb 12.1866 797.54
rfemur -6.39464 1.91922 22.1395
rtibia 9.97116
rfoot -14.2869 -40.5981
rtoes 12.4326
lfemur -24.8993 -26.197 -10.8406
ltibia 20.4092
lfoot -7.79006 9.595
ltoes -32.9683
2594
root 4.51936 17.7909 0.240916 14.2425 110.293 4.34435
lowerback 1.92469 3.77685 -1.14973
upperback -0.330293 5.09578 2.85805
thorax -1.77677 2.5922 3.39035
lowerneck -24.4831 -0.380961 5.82801
upperneck 44.833 -3.41381 6.22879
head 24.0759 1.71786 1.97343
rclavicle -8.74653e-014 -2.3059e-014
rhumerus -24.3808 2.54049 -42.2614
rradius 110.244
rwrist -44.9605
rhand 30.5557 20.3452
rfingers 7.12502
rthumb 54.2058 1.64731
lclavicle -8.74653e-014 -2.3059e-014
lhumerus 2.35799 17.6867 20.1268
lradius 97.2968
lwrist 79.1352
lhand -13.2776 47.8226
lfingers 7.12502
lthumb 12.8256 797.409
rfemur -6.26628 1.8114 22.2452
rtibia 9.91639
rfoot -14.0286 -40.164
rtoes 12.1488
lfemur -24.6313 -26.0959 -10.8199
ltibia 20.4443
lfoot -7.84904 9.90576
ltoes -33.3789
2595
root 4.52784 17.789 0.247246 14.33 109.943 4.57798
lowerback 1.90422 3.72034 -1.21346
upperback -0.38017 5.01414 2.74688
thorax -1.80628 2.55054 3.31455
lowerneck -24.4338 -0.278269 6.12222
upperneck 44.7854 -3.40571 6.21049
head 24.0043 1.76616 1.8999
rclavicle 4.39314e-014 3.97569e-015
rhumerus -24.0069 2.40606 -42.8963
rradius 111.928
rwrist -45.4667
rhand 28.9082 21.7386
rfingers 7.12502
rthumb 52.7227 2.07229
lclavicle 4.39314e-014 3.97569e-015
lhumerus 1.77681 17.3863 20.8894
lradius 98.6396
lwrist 79.3847
lhand -12.6119 47.5985
lfingers 7.12502
lthumb 13.4672 797.143
rfemur -6.14305 1.66014 22.3054
rtibia 9.89357
rfoot -13.6164 -39.7597
rtoes 11.4095
lfemur -24.3621 -26.0774 -10.8227
ltibia 20.4757
lfoot -7.96292 10.242
ltoes -33.3924
2596
root 4.53347 17.787 0.252221 14.3537 109.599 4.7056
lowerback 1.84189 3.63744 -1.35952
upperback -0.416499 4.89623 2.6674
thorax -1.80586 2.49179 3.32215
lowerneck -24.474 -0.181202 6.28044
upperneck 44.7642 -3.42581 6.36248
head 24.0162 1.80455 1.95052
rclavicle 7.53394e-014 -1.74931e-014
rhumerus -23.3316 2.59493 -43.5427
rradius 113.131
rwrist -44.8165
rhand 27.1129 22.7158
rfingers 7.12502
rthumb 51.0936 2.08678
lclavicle 7.53394e-014 -1.74931e-014
lhumerus 1.06078 17.0365 21.6713
lradius 100.102
lwrist 79.287
lhand -12.1717 47.5261
lfingers 7.12502
lthumb 13.8915 797.042
rfemur -6.10449 1.49307 22.3073
rtibia 9.92002
rfoot -13.1586 -39.3734
rtoes 10.4526
lfemur -24.1466 -26.0115 -10.8609
ltibia 20.4934
lfoot -8.09055 10.5063
ltoes -33.2193
2597
root 4.53845 17.7863 0.25827 14.3969 109.246 4.83953
lowerback 1.76902 3.56647 -1.54382
upperback -0.44463 4.79509 2.62623
thorax -1.79855 2.44241 3.39065
lowerneck -24.4748 -0.1202 6.19065
upperneck 44.8218 -3.42328 6.67887
head 24.1071 1.83481 2.16148
rclavicle 2.22639e-014 7.95139e-015
rhumerus -22.5644 3.11886 -44.2226
rradius 113.872
rwrist -42.3552
rhand 24.8499 23.0348
rfingers 7.12502
rthumb 49.0233 1.31394
lclavicle 2.22639e-014 7.95139e-015
lhumerus 0.349426 16.6404 22.5246
lradius 101.596
lwrist 78.946
lhand -11.8356 47.6576
lfingers 7.12502
lthumb 14.2154 797.151
rfemur -6.11322 1.33679 22.3168
rtibia 10.0091
rfoot -12.8334 -38.9627
rtoes 9.8578
lfemur -23.9404 -25.9905 -10.8765
ltibia 20.4862
lfoot -8.16881 10.8204
ltoes -33.054
2598
root 4.54209 17.7862 0.264557 14.4011 108.888 4.96176
lowerback 1.71701 3.52567 -1.67998
upperback -0.425005 4.73448 2.57594
thorax -1.75163 2.41158 3.42161
lowerneck -24.492 -0.0695199 6.18978
upperneck 44.7946 -3.3702 6.68692
head 24.0872 1.8465 2.17489
rclavicle -6.34123e-014 -1.51076e-014
rhumerus -21.8499 3.912 -44.7685
rradius 114.538
rwrist -38.163
rhand 23.0966 22.1333
rfingers 7.12502
rthumb 47.4081 -0.351004
lclavicle -6.34123e-014 -1.51076e-014
lhumerus -0.179561 16.2174 23.4249
lradius 102.963
lwrist 78.5734
lhand -11.3095 47.8104
lfingers 7.12502
lthumb 14.7223 797.268
rfemur -6.106 1.16697 22.3239
rtibia 10.1381
rfoot -12.5564 -38.5217
rtoes 9.36362
lfemur -23.6961 -26.0339 -10.9004
ltibia 20.4589
lfoot -8.24048 11.1829
ltoes -32.5767
2599
root 4.54206 17.787 0.269848 14.542 108.504 5.18969
lowerback 1.67317 3.48893 -1.77045
upperback -0.403842 4.6806 2.52303
thorax -1.70414 2.38358 3.42358
lowerneck -24.6159 -0.0377419 6.30251
upperneck 44.9094 -3.34113 6.54795
head 24.2388 1.86202 2.09615
rclavicle -6.76862e-014 2.54444e-014
rhumerus -21.4521 6.04693 -45.6066
rradius 115.288
rwrist -29.1164
rhand 17.0422 22.2214
rfingers 7.12502
rthumb 41.7703 -2.44516
lclavicle -6.76862e-014 2.54444e-014
lhumerus -0.642484 15.7412 24.3244
lradius 104.183
lwrist 78.0655
lhand -10.698 48.0858
lfingers 7.12502
lthumb 15.3114 797.499
rfemur -6.19634 0.918689 22.3496
rtibia 10.3313
rfoot -12.1522 -38.0154
rtoes 8.36205
lfemur -23.4862 -26.0493 -10.8797
ltibia 20.4051
lfoot -8.29316 11.5865
ltoes -31.9023
